# xmcd
#
# Track frame offsets: 
#        150
#        15598
#        39518
#        70700
#        85877
#        107553
#        135398
#        186363
#        197216
#
# Disc length: 2950 seconds
#
# Revision: 2
# Processed by: cddbd v1.5.1PL2 Copyright (c) Steve Scherf et al.
# Submitted via: ExactAudioCopy v0.95b3
#
DISCID=710b8409
DTITLE=Michael Masley - Cymbalom Solos
DYEAR=1985
DGENRE=New Age
TTITLE0=Soleil
TTITLE1=Sleepdance: On Leaves of Water
TTITLE2=Music to Look for Something Lost By
TTITLE3=Bermuda Trapezoid
TTITLE4=Survival in a House Darkening
TTITLE5=Advice from the Angel of Thresholds
TTITLE6=The Sea as a Moon-Launched Mirror
TTITLE7=Childbirth in a Cave Art
TTITLE8=Soft Evidence
EXTD=YEAR: 1985
EXTT0=
EXTT1=
EXTT2=
EXTT3=
EXTT4=
EXTT5=
EXTT6=
EXTT7=
EXTT8=
PLAYORDER=
